<svg width="20" height="20" viewBox="0 0 20 20" fill="none" xmlns="http://www.w3.org/2000/svg">
<path d="M4 8.00213C4 10.7364 6.12846 13.4386 9.43676 15.7439C9.62055 15.8719 9.84585 16 10 16C10.1542 16 10.3794 15.8719 10.5632 15.7439C13.8775 13.4386 16 10.7364 16 8.00213C16 5.63927 14.4881 4 12.5494 4C11.417 4 10.5336 4.5571 10 5.40235C9.47826 4.5635 8.58893 4 7.45652 4C5.51186 4 4 5.63927 4 8.00213ZM5.22134 7.99573C5.22134 6.38207 6.20553 5.28709 7.52767 5.28709C8.59486 5.28709 9.19368 5.98506 9.56719 6.59338C9.7332 6.85592 9.84585 6.93917 10 6.93917C10.1601 6.93917 10.2609 6.84952 10.4328 6.59338C10.836 5.99787 11.4111 5.28709 12.4723 5.28709C13.8004 5.28709 14.7846 6.38207 14.7846 7.99573C14.7846 10.2497 12.6146 12.7471 10.1126 14.54C10.0593 14.5784 10.0237 14.6041 10 14.6041C9.97628 14.6041 9.94071 14.5784 9.89328 14.54C7.3913 12.7471 5.22134 10.2497 5.22134 7.99573Z" fill="#666666"/>
</svg>
