<svg width="222" height="25" viewBox="0 0 222 25" fill="none" xmlns="http://www.w3.org/2000/svg">
<path d="M18.576 13H17.376V17.8C16.672 18.2 15.64 18.56 14.28 18.88C12.936 19.184 11.48 19.336 9.912 19.336C6.92 19.336 4.576 18.552 2.88 16.984C1.184 15.4 0.336 12.96 0.336 9.664C0.336 6.288 1.176 3.832 2.856 2.296C4.552 0.759999 6.968 -0.00800133 10.104 -0.00800133C11.624 -0.00800133 13.048 0.151999 14.376 0.472C15.704 0.791999 16.704 1.152 17.376 1.552V7.288H11.376V6.16C11.376 5.488 11.232 5.008 10.944 4.72C10.672 4.416 10.232 4.264 9.624 4.264C9.016 4.264 8.568 4.416 8.28 4.72C8.008 5.008 7.872 5.488 7.872 6.16L7.872 13.168C7.872 13.84 8.008 14.328 8.28 14.632C8.568 14.92 9.016 15.064 9.624 15.064C10.232 15.064 10.672 14.92 10.944 14.632C11.232 14.328 11.376 13.84 11.376 13.168V13H10.08V9.424H18.576V13ZM35.2374 15.064V19H28.6614V17.128C27.5094 18.6 26.0694 19.336 24.3414 19.336C23.0134 19.336 22.0134 18.92 21.3414 18.088C20.6854 17.256 20.3574 16.112 20.3574 14.656V9.592H19.3014V5.656H25.8774V13.528C25.8774 14.056 25.9894 14.448 26.2134 14.704C26.4534 14.944 26.8054 15.064 27.2694 15.064C27.7334 15.064 28.0774 14.944 28.3014 14.704C28.5414 14.448 28.6614 14.056 28.6614 13.528V9.592H27.3654V5.656H34.1814V15.064H35.2374ZM37.2906 4.336V0.327999H42.1866V4.336H37.2906ZM36.1386 19V15.064H37.1946V9.592H36.1386V5.656H42.7146V15.064H43.7706V19H36.1386ZM49.4034 19.336C47.7714 19.336 46.5394 18.728 45.7074 17.512C44.8914 16.296 44.4834 14.568 44.4834 12.328C44.4834 10.088 44.8914 8.36 45.7074 7.144C46.5394 5.928 47.7714 5.32 49.4034 5.32C50.2194 5.32 50.9394 5.52 51.5634 5.92C52.2034 6.32 52.7234 6.776 53.1234 7.288V4.264H51.7074V0.327999H58.6434V15.064H59.6994V19H53.1234V17.368C52.7234 17.88 52.2034 18.336 51.5634 18.736C50.9394 19.136 50.2194 19.336 49.4034 19.336ZM51.7314 15.064C52.1954 15.064 52.5394 14.944 52.7634 14.704C53.0034 14.448 53.1234 14.056 53.1234 13.528V11.128C53.1234 10.6 53.0034 10.216 52.7634 9.976C52.5394 9.72 52.1954 9.592 51.7314 9.592C51.2674 9.592 50.9154 9.72 50.6754 9.976C50.4514 10.216 50.3394 10.6 50.3394 11.128V13.528C50.3394 14.056 50.4514 14.448 50.6754 14.704C50.9154 14.944 51.2674 15.064 51.7314 15.064ZM67.8643 19.336C65.5923 19.336 63.8163 18.744 62.5363 17.56C61.2563 16.36 60.6163 14.616 60.6163 12.328C60.6163 10.04 61.2563 8.304 62.5363 7.12C63.8163 5.92 65.5923 5.32 67.8643 5.32C70.1203 5.32 71.7443 5.912 72.7363 7.096C73.7443 8.264 74.2483 9.72 74.2483 11.464V13.192H66.4723V13.336C66.4723 13.928 66.6483 14.368 67.0003 14.656C67.3523 14.928 67.9363 15.064 68.7523 15.064C69.7283 15.064 70.6563 14.992 71.5363 14.848C72.4163 14.704 73.1843 14.52 73.8403 14.296V18.136C73.2803 18.44 72.4563 18.72 71.3683 18.976C70.2963 19.216 69.1283 19.336 67.8643 19.336ZM69.2563 10.552V10.264C69.2563 9.72 69.1363 9.328 68.8963 9.088C68.6723 8.848 68.3283 8.728 67.8643 8.728C67.4003 8.728 67.0483 8.856 66.8083 9.112C66.5843 9.352 66.4723 9.736 66.4723 10.264V10.552H69.2563ZM85.4503 5.32C85.7703 5.32 86.0743 5.352 86.3623 5.416C86.6503 5.48 86.8903 5.56 87.0823 5.656V10.24C86.4263 9.968 85.7223 9.832 84.9703 9.832C83.9623 9.832 83.1863 10.096 82.6423 10.624C82.0983 11.152 81.8263 11.936 81.8263 12.976V15.064H83.9863V19H75.2503V15.064H76.3063V9.592H75.2503V5.656H81.8263V7.408C82.2743 6.736 82.7863 6.224 83.3623 5.872C83.9383 5.504 84.6343 5.32 85.4503 5.32ZM103.891 15.064V19H97.3146V17.128C96.1626 18.6 94.7226 19.336 92.9946 19.336C91.6666 19.336 90.6666 18.92 89.9946 18.088C89.3386 17.256 89.0106 16.112 89.0106 14.656V9.592H87.9546V5.656H94.5306V13.528C94.5306 14.056 94.6426 14.448 94.8666 14.704C95.1066 14.944 95.4586 15.064 95.9226 15.064C96.3866 15.064 96.7306 14.944 96.9546 14.704C97.1946 14.448 97.3146 14.056 97.3146 13.528V9.592H96.0186V5.656H102.835V15.064H103.891ZM120.728 15.064V19H113.144V15.064H114.152V11.128C114.152 10.6 114.04 10.216 113.816 9.976C113.592 9.72 113.256 9.592 112.808 9.592C111.848 9.592 111.368 10.104 111.368 11.128V15.064H112.376V19H104.792V15.064H105.848V9.592H104.792V5.656H111.368V7.528C112.52 6.056 113.96 5.32 115.688 5.32C117.016 5.32 118.008 5.736 118.664 6.568C119.336 7.4 119.672 8.544 119.672 10V15.064H120.728ZM129.226 15.064H130.426V4.264H129.226V0.327999H139.762C141.826 0.327999 143.402 0.775999 144.49 1.672C145.578 2.552 146.122 3.984 146.122 5.968C146.122 7.952 145.578 9.392 144.49 10.288C143.402 11.168 141.826 11.608 139.762 11.608H137.146V15.064H139.45V19H129.226V15.064ZM137.962 8.2C138.89 8.2 139.354 7.688 139.354 6.664V5.8C139.354 5.272 139.234 4.888 138.994 4.648C138.77 4.392 138.426 4.264 137.962 4.264H137.146V8.2H137.962ZM157.385 5.32C157.705 5.32 158.009 5.352 158.297 5.416C158.585 5.48 158.825 5.56 159.017 5.656V10.24C158.361 9.968 157.657 9.832 156.905 9.832C155.897 9.832 155.121 10.096 154.577 10.624C154.033 11.152 153.761 11.936 153.761 12.976V15.064H155.921V19H147.185V15.064H148.241V9.592H147.185V5.656H153.761V7.408C154.209 6.736 154.721 6.224 155.297 5.872C155.873 5.504 156.569 5.32 157.385 5.32ZM167.185 19.336C164.913 19.336 163.137 18.744 161.857 17.56C160.577 16.36 159.937 14.616 159.937 12.328C159.937 10.04 160.577 8.304 161.857 7.12C163.137 5.92 164.913 5.32 167.185 5.32C169.489 5.32 171.273 5.928 172.537 7.144C173.801 8.344 174.433 10.072 174.433 12.328C174.433 14.616 173.793 16.36 172.513 17.56C171.233 18.744 169.457 19.336 167.185 19.336ZM167.185 15.064C167.649 15.064 167.993 14.944 168.217 14.704C168.457 14.448 168.577 14.056 168.577 13.528V11.128C168.577 10.6 168.457 10.216 168.217 9.976C167.993 9.72 167.649 9.592 167.185 9.592C166.721 9.592 166.369 9.72 166.129 9.976C165.905 10.216 165.793 10.6 165.793 11.128V13.528C165.793 14.056 165.905 14.448 166.129 14.704C166.369 14.944 166.721 15.064 167.185 15.064ZM176.469 4.336V0.327999L181.365 0.327999V4.336H176.469ZM176.301 24.664C175.645 24.664 174.973 24.608 174.285 24.496C173.581 24.384 172.989 24.264 172.509 24.136V20.224C173.261 20.336 173.933 20.392 174.525 20.392C175.757 20.392 176.373 19.816 176.373 18.664V9.592H174.765V5.656H181.893V18.184C181.893 20.376 181.429 22 180.501 23.056C179.573 24.128 178.173 24.664 176.301 24.664ZM190.352 19.336C188.08 19.336 186.304 18.744 185.024 17.56C183.744 16.36 183.104 14.616 183.104 12.328C183.104 10.04 183.744 8.304 185.024 7.12C186.304 5.92 188.08 5.32 190.352 5.32C192.608 5.32 194.232 5.912 195.224 7.096C196.232 8.264 196.736 9.72 196.736 11.464V13.192H188.96V13.336C188.96 13.928 189.136 14.368 189.488 14.656C189.84 14.928 190.424 15.064 191.24 15.064C192.216 15.064 193.144 14.992 194.024 14.848C194.904 14.704 195.672 14.52 196.328 14.296V18.136C195.768 18.44 194.944 18.72 193.856 18.976C192.784 19.216 191.616 19.336 190.352 19.336ZM191.744 10.552V10.264C191.744 9.72 191.624 9.328 191.384 9.088C191.16 8.848 190.816 8.728 190.352 8.728C189.888 8.728 189.536 8.856 189.296 9.112C189.072 9.352 188.96 9.736 188.96 10.264V10.552H191.744ZM204.866 19.336C202.578 19.336 200.794 18.744 199.514 17.56C198.234 16.36 197.594 14.616 197.594 12.328C197.594 10.04 198.234 8.304 199.514 7.12C200.794 5.92 202.57 5.32 204.842 5.32C205.946 5.32 207.002 5.472 208.01 5.776C209.018 6.08 209.802 6.424 210.362 6.808V11.56H206.234V11.128C206.234 10.6 206.122 10.216 205.898 9.976C205.674 9.72 205.322 9.592 204.842 9.592C203.914 9.592 203.45 10.104 203.45 11.128V13.192C203.45 14.44 204.162 15.064 205.586 15.064C206.914 15.064 208.458 14.92 210.218 14.632V18.4C209.674 18.64 208.906 18.856 207.914 19.048C206.938 19.24 205.922 19.336 204.866 19.336ZM217.335 19.336C215.639 19.336 214.359 18.928 213.495 18.112C212.647 17.28 212.223 15.888 212.223 13.936V9.592H211.167V5.656C211.775 5.656 212.231 5.504 212.535 5.2C212.839 4.88 212.991 4.448 212.991 3.904V2.824L218.079 2.824V5.656H221.319V9.592H218.079V13.528C218.079 14.056 218.191 14.448 218.415 14.704C218.655 14.944 219.007 15.064 219.471 15.064C220.079 15.064 220.743 14.992 221.463 14.848V18.616C221.015 18.792 220.407 18.952 219.639 19.096C218.887 19.256 218.119 19.336 217.335 19.336Z" fill="white"/>
</svg>
